<svg xmlns="http://www.w3.org/2000/svg" xmlns:xlink="http://www.w3.org/1999/xlink" width="400" zoomAndPan="magnify" viewBox="0 0 300 74.999997" height="100" preserveAspectRatio="xMidYMid meet" version="1.0"><defs><g/></defs><g fill="rgb(100%, 100%, 100%)" fill-opacity="1"><g transform="translate(4.435842, 70.097339)"><g><path d="M 4.511719 0 L 27.984375 0 L 27.984375 -17.421875 L 33.128906 -23.109375 L 42.425781 0 L 70.679688 0 L 49.195312 -40.800781 L 70.679688 -64.996094 L 42.425781 -64.996094 L 28.164062 -45.496094 L 27.984375 -45.585938 L 27.984375 -64.996094 L 4.511719 -64.996094 Z M 4.511719 0 "/></g></g></g><g fill="rgb(100%, 100%, 100%)" fill-opacity="1"><g transform="translate(83.602636, 70.097339)"><g><path d="M 36.109375 2.257812 C 56.691406 2.257812 68.152344 -7.761719 68.152344 -25.726562 L 68.152344 -64.996094 L 44.683594 -64.996094 L 44.683594 -26.628906 C 44.683594 -20.851562 41.613281 -17.601562 36.109375 -17.601562 C 30.601562 -17.601562 27.53125 -20.851562 27.53125 -26.628906 L 27.53125 -64.996094 L 4.0625 -64.996094 L 4.0625 -25.726562 C 4.0625 -7.761719 15.527344 2.257812 36.109375 2.257812 Z M 36.109375 2.257812 "/></g></g></g><g fill="rgb(100%, 100%, 100%)" fill-opacity="1"><g transform="translate(164.304013, 70.097339)"><g><path d="M 4.511719 0 L 48.746094 0 L 48.746094 -19.859375 L 27.984375 -19.859375 L 27.984375 -64.996094 L 4.511719 -64.996094 Z M 4.511719 0 "/></g></g></g><g fill="rgb(100%, 100%, 100%)" fill-opacity="1"><g transform="translate(223.340701, 70.097339)"><g><path d="M 36.109375 2.257812 C 56.691406 2.257812 68.152344 -7.761719 68.152344 -25.726562 L 68.152344 -64.996094 L 44.683594 -64.996094 L 44.683594 -26.628906 C 44.683594 -20.851562 41.613281 -17.601562 36.109375 -17.601562 C 30.601562 -17.601562 27.53125 -20.851562 27.53125 -26.628906 L 27.53125 -64.996094 L 4.0625 -64.996094 L 4.0625 -25.726562 C 4.0625 -7.761719 15.527344 2.257812 36.109375 2.257812 Z M 36.109375 2.257812 "/></g></g></g></svg>