<svg xmlns="http://www.w3.org/2000/svg" xml:space="preserve" viewBox="0 0 512 512"><g xmlns="http://www.w3.org/2000/svg" fill="#fff"><path d="M426 496H86c-25 0-46-21-46-46V208a16 16 0 0 1 32 0v242c0 8 6 14 14 14h340c8 0 14-6 14-14V208a16 16 0 0 1 32 0v242c0 25-21 46-46 46z" data-original="#000000"/><path d="M496 264c-4 0-8-2-11-5L286 60a42 42 0 0 0-60 0L27 259a16 16 0 1 1-22-22L204 38c29-29 75-29 104 0l199 199a16 16 0 0 1-11 27zM320 496H192c-9 0-16-7-16-16V338c0-28 22-50 50-50h60c28 0 50 22 50 50v142c0 9-7 16-16 16zm-112-32h96V338c0-10-8-18-18-18h-60c-10 0-18 8-18 18z" data-original="#000000"/></g></svg>