<svg xmlns="http://www.w3.org/2000/svg" viewBox="0 0 609.7 609.7" xml:space="preserve"><g xmlns="http://www.w3.org/2000/svg" fill="#fff"><path d="M42 245c-19 14-42 32-42 60s23 45 42 60c8 5 15 11 21 18 0 10-2 20-6 30-6 22-15 49 1 71s45 23 68 23c10 0 20 1 29 3 6 8 10 17 12 27 8 22 18 49 44 58l14 2c19 0 37-12 53-23 8-7 17-12 27-15 9 3 18 8 26 15 20 13 43 29 68 21 26-9 36-36 43-58 3-10 7-18 12-27 10-2 19-3 29-3 24 0 53-1 68-23 16-22 8-49 1-71l-6-29c7-8 14-14 22-19 18-15 42-33 42-60s-24-46-42-60c-8-5-15-11-21-19 0-10 2-20 5-29 7-22 15-50-1-71-15-22-44-23-68-24-9 1-19 0-29-3-5-8-9-17-12-26-7-22-17-50-43-58-25-8-48 7-68 21-8 6-17 11-26 15-10-4-19-9-27-15-20-14-42-29-67-21-26 8-36 36-44 58-2 9-6 18-11 26-10 3-20 4-30 3-23 1-52 2-68 24-16 21-7 49-1 71 4 9 6 19 6 29-6 7-13 14-21 19zm31 40c16-12 32-24 38-43 7-19 0-41-5-59l-6-27c9-2 18-3 28-3 20 0 41-1 57-13 17-11 23-31 30-50l11-26c8 4 16 8 23 14 17 11 35 24 56 24s39-13 55-24c7-6 15-10 23-14 5 8 9 17 11 26 7 19 14 39 30 50 17 12 38 13 58 13 9 0 19 1 28 3l-6 27c-6 18-12 40-6 59s23 31 39 43c8 6 15 12 21 20-6 7-13 14-21 19-16 12-33 25-39 44s0 40 6 59l6 27c-9 2-19 3-28 2-20 1-41 1-58 13-16 12-23 32-30 51-2 9-6 18-11 26l-23-14c-16-11-35-24-55-24s-39 13-56 24l-23 14-11-26c-7-19-13-39-30-51-16-12-37-12-57-13-10 1-19 0-28-2l6-27c5-19 12-40 5-59-6-19-22-32-38-44-8-5-15-12-22-19 7-8 14-14 22-20z" data-original="#000000"/><path d="M273 394c7 0 13-3 18-8l127-127a25 25 0 1 0-36-36L273 332l-45-45a25 25 0 1 0-36 36l63 63c5 5 11 8 18 8z" data-original="#000000"/></g></svg>